<mxfile host="app.diagrams.net" agent="Mozilla/5.0 (X11; Linux x86_64; rv:135.0) Gecko/20100101 Firefox/135.0" version="26.0.14">
  <diagram name="Page-1" id="RMg7-KwG8FkTHBsVSJzT">
    <mxGraphModel dx="891" dy="582" grid="1" gridSize="10" guides="1" tooltips="1" connect="1" arrows="1" fold="1" page="1" pageScale="1" pageWidth="850" pageHeight="1100" math="0" shadow="0">
      <root>
        <mxCell id="0" />
        <mxCell id="1" parent="0" />
        <mxCell id="yb0SHUQ2o_HHCoy64Sg8-2" value="&lt;div&gt;Commit 1&lt;/div&gt;" style="swimlane;fontStyle=0;childLayout=stackLayout;horizontal=1;startSize=30;horizontalStack=0;resizeParent=1;resizeParentMax=0;resizeLast=0;collapsible=1;marginBottom=0;whiteSpace=wrap;html=1;fontFamily=sans-serif;strokeColor=#FF8000;" vertex="1" parent="1">
          <mxGeometry x="70" y="90" width="160" height="150" as="geometry" />
        </mxCell>
        <mxCell id="yb0SHUQ2o_HHCoy64Sg8-3" value="&lt;div&gt;&lt;font style=&quot;font-size: 10px;&quot;&gt;Drzewo:&amp;nbsp;&lt;/font&gt;&lt;/div&gt;&lt;div&gt;&lt;font style=&quot;font-size: 10px;&quot;&gt;&amp;nbsp;&amp;nbsp;&amp;nbsp; 116f705a...&lt;/font&gt;&lt;/div&gt;" style="text;strokeColor=none;fillColor=none;align=left;verticalAlign=middle;spacingLeft=4;spacingRight=4;overflow=hidden;points=[[0,0.5],[1,0.5]];portConstraint=eastwest;rotatable=0;whiteSpace=wrap;html=1;fontFamily=sans-serif;" vertex="1" parent="yb0SHUQ2o_HHCoy64Sg8-2">
          <mxGeometry y="30" width="160" height="30" as="geometry" />
        </mxCell>
        <mxCell id="yb0SHUQ2o_HHCoy64Sg8-4" value="&lt;div&gt;Wiadomość:&lt;/div&gt;&lt;div&gt;&amp;nbsp;&amp;nbsp;&amp;nbsp; pierwszy commit!!!!!!&lt;/div&gt;" style="text;strokeColor=none;fillColor=none;align=left;verticalAlign=middle;spacingLeft=4;spacingRight=4;overflow=hidden;points=[[0,0.5],[1,0.5]];portConstraint=eastwest;rotatable=0;whiteSpace=wrap;html=1;fontSize=10;fontFamily=sans-serif;" vertex="1" parent="yb0SHUQ2o_HHCoy64Sg8-2">
          <mxGeometry y="60" width="160" height="30" as="geometry" />
        </mxCell>
        <mxCell id="yb0SHUQ2o_HHCoy64Sg8-5" value="&lt;div&gt;Data:&lt;/div&gt;&lt;div&gt;&amp;nbsp;&amp;nbsp;&amp;nbsp; 2025-02-16 20:54:02 UTC+1&lt;/div&gt;" style="text;strokeColor=none;fillColor=none;align=left;verticalAlign=middle;spacingLeft=4;spacingRight=4;overflow=hidden;points=[[0,0.5],[1,0.5]];portConstraint=eastwest;rotatable=0;whiteSpace=wrap;html=1;fontSize=10;fontFamily=sans-serif;" vertex="1" parent="yb0SHUQ2o_HHCoy64Sg8-2">
          <mxGeometry y="90" width="160" height="30" as="geometry" />
        </mxCell>
        <mxCell id="yb0SHUQ2o_HHCoy64Sg8-7" value="&lt;div&gt;&lt;font size=&quot;1&quot;&gt;Poprzedni:&lt;/font&gt;&lt;/div&gt;&lt;div&gt;&lt;font size=&quot;1&quot;&gt;&amp;nbsp;&amp;nbsp;&amp;nbsp;&amp;nbsp; &lt;i&gt;brak&lt;/i&gt;&lt;/font&gt;&lt;/div&gt;" style="text;html=1;align=left;verticalAlign=middle;whiteSpace=wrap;rounded=0;fontFamily=sans-serif;" vertex="1" parent="yb0SHUQ2o_HHCoy64Sg8-2">
          <mxGeometry y="120" width="160" height="30" as="geometry" />
        </mxCell>
        <mxCell id="yb0SHUQ2o_HHCoy64Sg8-6" value="Hash: 86a1287c..." style="text;html=1;align=center;verticalAlign=middle;resizable=0;points=[];autosize=1;strokeColor=none;fillColor=none;fontColor=#FF8000;fontFamily=sans-serif;" vertex="1" parent="1">
          <mxGeometry x="90" y="250" width="120" height="30" as="geometry" />
        </mxCell>
        <mxCell id="yb0SHUQ2o_HHCoy64Sg8-8" value="&lt;div&gt;Commit 2&lt;/div&gt;" style="swimlane;fontStyle=0;childLayout=stackLayout;horizontal=1;startSize=30;horizontalStack=0;resizeParent=1;resizeParentMax=0;resizeLast=0;collapsible=1;marginBottom=0;whiteSpace=wrap;html=1;fontFamily=sans-serif;strokeColor=#FF8000;" vertex="1" parent="1">
          <mxGeometry x="290" y="90" width="160" height="150" as="geometry" />
        </mxCell>
        <mxCell id="yb0SHUQ2o_HHCoy64Sg8-9" value="&lt;div&gt;&lt;font style=&quot;font-size: 10px;&quot;&gt;Drzewo:&amp;nbsp;&lt;/font&gt;&lt;/div&gt;&lt;div&gt;&lt;font style=&quot;font-size: 10px;&quot;&gt;&amp;nbsp;&amp;nbsp;&amp;nbsp; 961b3218...&lt;/font&gt;&lt;/div&gt;" style="text;strokeColor=none;fillColor=none;align=left;verticalAlign=middle;spacingLeft=4;spacingRight=4;overflow=hidden;points=[[0,0.5],[1,0.5]];portConstraint=eastwest;rotatable=0;whiteSpace=wrap;html=1;fontFamily=sans-serif;" vertex="1" parent="yb0SHUQ2o_HHCoy64Sg8-8">
          <mxGeometry y="30" width="160" height="30" as="geometry" />
        </mxCell>
        <mxCell id="yb0SHUQ2o_HHCoy64Sg8-10" value="&lt;div&gt;Wiadomość:&lt;/div&gt;&lt;div&gt;&amp;nbsp;&amp;nbsp;&amp;nbsp; nowy ficzer&lt;/div&gt;" style="text;strokeColor=none;fillColor=none;align=left;verticalAlign=middle;spacingLeft=4;spacingRight=4;overflow=hidden;points=[[0,0.5],[1,0.5]];portConstraint=eastwest;rotatable=0;whiteSpace=wrap;html=1;fontSize=10;fontFamily=sans-serif;" vertex="1" parent="yb0SHUQ2o_HHCoy64Sg8-8">
          <mxGeometry y="60" width="160" height="30" as="geometry" />
        </mxCell>
        <mxCell id="yb0SHUQ2o_HHCoy64Sg8-11" value="&lt;div&gt;Data:&lt;/div&gt;&lt;div&gt;&amp;nbsp;&amp;nbsp;&amp;nbsp; 2025-02-16 21:06:53 UTC+1&lt;/div&gt;" style="text;strokeColor=none;fillColor=none;align=left;verticalAlign=middle;spacingLeft=4;spacingRight=4;overflow=hidden;points=[[0,0.5],[1,0.5]];portConstraint=eastwest;rotatable=0;whiteSpace=wrap;html=1;fontSize=10;fontFamily=sans-serif;" vertex="1" parent="yb0SHUQ2o_HHCoy64Sg8-8">
          <mxGeometry y="90" width="160" height="30" as="geometry" />
        </mxCell>
        <mxCell id="yb0SHUQ2o_HHCoy64Sg8-12" value="&lt;div&gt;&lt;font size=&quot;1&quot;&gt;Poprzedni:&lt;/font&gt;&lt;/div&gt;&lt;div&gt;&lt;font size=&quot;1&quot;&gt;&amp;nbsp;&amp;nbsp;&amp;nbsp;&amp;nbsp;&amp;nbsp;86a1287c&lt;/font&gt;&lt;/div&gt;" style="text;html=1;align=left;verticalAlign=middle;whiteSpace=wrap;rounded=0;fontFamily=sans-serif;" vertex="1" parent="yb0SHUQ2o_HHCoy64Sg8-8">
          <mxGeometry y="120" width="160" height="30" as="geometry" />
        </mxCell>
        <mxCell id="yb0SHUQ2o_HHCoy64Sg8-13" value="Hash: 461c2485..." style="text;html=1;align=center;verticalAlign=middle;resizable=0;points=[];autosize=1;strokeColor=none;fillColor=none;fontColor=#FF8000;fontFamily=sans-serif;" vertex="1" parent="1">
          <mxGeometry x="310" y="250" width="120" height="30" as="geometry" />
        </mxCell>
        <mxCell id="yb0SHUQ2o_HHCoy64Sg8-14" value="&lt;div&gt;Commit 3&lt;/div&gt;" style="swimlane;fontStyle=0;childLayout=stackLayout;horizontal=1;startSize=30;horizontalStack=0;resizeParent=1;resizeParentMax=0;resizeLast=0;collapsible=1;marginBottom=0;whiteSpace=wrap;html=1;fontFamily=sans-serif;strokeColor=#FF8000;" vertex="1" parent="1">
          <mxGeometry x="510" y="90" width="160" height="150" as="geometry" />
        </mxCell>
        <mxCell id="yb0SHUQ2o_HHCoy64Sg8-15" value="&lt;div&gt;&lt;font style=&quot;font-size: 10px;&quot;&gt;Drzewo:&amp;nbsp;&lt;/font&gt;&lt;/div&gt;&lt;div&gt;&lt;font style=&quot;font-size: 10px;&quot;&gt;&amp;nbsp;&amp;nbsp;&amp;nbsp; aaa3ce3f...&lt;/font&gt;&lt;/div&gt;" style="text;strokeColor=none;fillColor=none;align=left;verticalAlign=middle;spacingLeft=4;spacingRight=4;overflow=hidden;points=[[0,0.5],[1,0.5]];portConstraint=eastwest;rotatable=0;whiteSpace=wrap;html=1;fontFamily=sans-serif;" vertex="1" parent="yb0SHUQ2o_HHCoy64Sg8-14">
          <mxGeometry y="30" width="160" height="30" as="geometry" />
        </mxCell>
        <mxCell id="yb0SHUQ2o_HHCoy64Sg8-16" value="&lt;div&gt;Wiadomość:&lt;/div&gt;&lt;div&gt;&amp;nbsp;&amp;nbsp;&amp;nbsp; naprawa crasha (ups)&lt;/div&gt;" style="text;strokeColor=none;fillColor=none;align=left;verticalAlign=middle;spacingLeft=4;spacingRight=4;overflow=hidden;points=[[0,0.5],[1,0.5]];portConstraint=eastwest;rotatable=0;whiteSpace=wrap;html=1;fontSize=10;fontFamily=sans-serif;" vertex="1" parent="yb0SHUQ2o_HHCoy64Sg8-14">
          <mxGeometry y="60" width="160" height="30" as="geometry" />
        </mxCell>
        <mxCell id="yb0SHUQ2o_HHCoy64Sg8-17" value="&lt;div&gt;Data:&lt;/div&gt;&lt;div&gt;&amp;nbsp;&amp;nbsp;&amp;nbsp; 2025-02-16 21:16:08 UTC+1&lt;/div&gt;" style="text;strokeColor=none;fillColor=none;align=left;verticalAlign=middle;spacingLeft=4;spacingRight=4;overflow=hidden;points=[[0,0.5],[1,0.5]];portConstraint=eastwest;rotatable=0;whiteSpace=wrap;html=1;fontSize=10;fontFamily=sans-serif;" vertex="1" parent="yb0SHUQ2o_HHCoy64Sg8-14">
          <mxGeometry y="90" width="160" height="30" as="geometry" />
        </mxCell>
        <mxCell id="yb0SHUQ2o_HHCoy64Sg8-18" value="&lt;div&gt;&lt;font size=&quot;1&quot;&gt;Poprzedni:&lt;/font&gt;&lt;/div&gt;&lt;div&gt;&lt;font size=&quot;1&quot;&gt;&amp;nbsp;&amp;nbsp;&amp;nbsp;&amp;nbsp;&amp;nbsp;461c2485&lt;/font&gt;&lt;/div&gt;" style="text;html=1;align=left;verticalAlign=middle;whiteSpace=wrap;rounded=0;fontFamily=sans-serif;" vertex="1" parent="yb0SHUQ2o_HHCoy64Sg8-14">
          <mxGeometry y="120" width="160" height="30" as="geometry" />
        </mxCell>
        <mxCell id="yb0SHUQ2o_HHCoy64Sg8-19" value="Hash: 1c9f3f2e..." style="text;html=1;align=center;verticalAlign=middle;resizable=0;points=[];autosize=1;strokeColor=none;fillColor=none;fontColor=#FF8000;fontFamily=sans-serif;" vertex="1" parent="1">
          <mxGeometry x="530" y="250" width="120" height="30" as="geometry" />
        </mxCell>
        <mxCell id="yb0SHUQ2o_HHCoy64Sg8-25" value="" style="curved=1;endArrow=classic;html=1;rounded=0;exitX=0.063;exitY=0.667;exitDx=0;exitDy=0;exitPerimeter=0;fontFamily=sans-serif;" edge="1" parent="1" source="yb0SHUQ2o_HHCoy64Sg8-12" target="yb0SHUQ2o_HHCoy64Sg8-6">
          <mxGeometry width="50" height="50" relative="1" as="geometry">
            <mxPoint x="390" y="220" as="sourcePoint" />
            <mxPoint x="440" y="170" as="targetPoint" />
            <Array as="points">
              <mxPoint x="250" y="225" />
              <mxPoint x="250" y="260" />
            </Array>
          </mxGeometry>
        </mxCell>
        <mxCell id="yb0SHUQ2o_HHCoy64Sg8-26" value="" style="curved=1;endArrow=classic;html=1;rounded=0;entryX=0.99;entryY=0.356;entryDx=0;entryDy=0;entryPerimeter=0;fontFamily=sans-serif;" edge="1" parent="1" target="yb0SHUQ2o_HHCoy64Sg8-13">
          <mxGeometry width="50" height="50" relative="1" as="geometry">
            <mxPoint x="520" y="230" as="sourcePoint" />
            <mxPoint x="430" y="267" as="targetPoint" />
            <Array as="points">
              <mxPoint x="470" y="230" />
              <mxPoint x="470" y="260" />
            </Array>
          </mxGeometry>
        </mxCell>
        <mxCell id="yb0SHUQ2o_HHCoy64Sg8-27" value="&lt;div&gt;Commit 1&lt;/div&gt;" style="swimlane;fontStyle=0;childLayout=stackLayout;horizontal=1;startSize=30;horizontalStack=0;resizeParent=1;resizeParentMax=0;resizeLast=0;collapsible=1;marginBottom=0;whiteSpace=wrap;html=1;fontFamily=sans-serif;strokeColor=#FF8000;" vertex="1" parent="1">
          <mxGeometry x="70" y="300" width="160" height="150" as="geometry" />
        </mxCell>
        <mxCell id="yb0SHUQ2o_HHCoy64Sg8-28" value="&lt;div&gt;&lt;font style=&quot;font-size: 10px;&quot;&gt;Drzewo:&amp;nbsp;&lt;/font&gt;&lt;/div&gt;&lt;div&gt;&lt;font style=&quot;font-size: 10px;&quot;&gt;&amp;nbsp;&amp;nbsp;&amp;nbsp; 116f705a...&lt;/font&gt;&lt;/div&gt;" style="text;strokeColor=none;fillColor=none;align=left;verticalAlign=middle;spacingLeft=4;spacingRight=4;overflow=hidden;points=[[0,0.5],[1,0.5]];portConstraint=eastwest;rotatable=0;whiteSpace=wrap;html=1;fontFamily=sans-serif;" vertex="1" parent="yb0SHUQ2o_HHCoy64Sg8-27">
          <mxGeometry y="30" width="160" height="30" as="geometry" />
        </mxCell>
        <mxCell id="yb0SHUQ2o_HHCoy64Sg8-29" value="&lt;div&gt;Wiadomość:&lt;/div&gt;&lt;div&gt;&amp;nbsp;&amp;nbsp;&amp;nbsp; pierwszy commit!!!!!!&lt;/div&gt;" style="text;strokeColor=none;fillColor=none;align=left;verticalAlign=middle;spacingLeft=4;spacingRight=4;overflow=hidden;points=[[0,0.5],[1,0.5]];portConstraint=eastwest;rotatable=0;whiteSpace=wrap;html=1;fontSize=10;fontFamily=sans-serif;" vertex="1" parent="yb0SHUQ2o_HHCoy64Sg8-27">
          <mxGeometry y="60" width="160" height="30" as="geometry" />
        </mxCell>
        <mxCell id="yb0SHUQ2o_HHCoy64Sg8-30" value="&lt;div&gt;Data:&lt;/div&gt;&lt;div&gt;&amp;nbsp;&amp;nbsp;&amp;nbsp; 2025-02-16 20:54:02 UTC+1&lt;/div&gt;" style="text;strokeColor=none;fillColor=none;align=left;verticalAlign=middle;spacingLeft=4;spacingRight=4;overflow=hidden;points=[[0,0.5],[1,0.5]];portConstraint=eastwest;rotatable=0;whiteSpace=wrap;html=1;fontSize=10;fontFamily=sans-serif;" vertex="1" parent="yb0SHUQ2o_HHCoy64Sg8-27">
          <mxGeometry y="90" width="160" height="30" as="geometry" />
        </mxCell>
        <mxCell id="yb0SHUQ2o_HHCoy64Sg8-31" value="&lt;div&gt;&lt;font size=&quot;1&quot;&gt;Poprzedni:&lt;/font&gt;&lt;/div&gt;&lt;div&gt;&lt;font size=&quot;1&quot;&gt;&amp;nbsp;&amp;nbsp;&amp;nbsp;&amp;nbsp; &lt;i&gt;brak&lt;/i&gt;&lt;/font&gt;&lt;/div&gt;" style="text;html=1;align=left;verticalAlign=middle;whiteSpace=wrap;rounded=0;fontFamily=sans-serif;" vertex="1" parent="yb0SHUQ2o_HHCoy64Sg8-27">
          <mxGeometry y="120" width="160" height="30" as="geometry" />
        </mxCell>
        <mxCell id="yb0SHUQ2o_HHCoy64Sg8-32" value="Hash: 86a1287c..." style="text;html=1;align=center;verticalAlign=middle;resizable=0;points=[];autosize=1;strokeColor=none;fillColor=none;fontColor=#FF8000;fontFamily=sans-serif;" vertex="1" parent="1">
          <mxGeometry x="90" y="460" width="120" height="30" as="geometry" />
        </mxCell>
        <mxCell id="yb0SHUQ2o_HHCoy64Sg8-33" value="&lt;div&gt;Commit 2&lt;/div&gt;" style="swimlane;fontStyle=0;childLayout=stackLayout;horizontal=1;startSize=30;horizontalStack=0;resizeParent=1;resizeParentMax=0;resizeLast=0;collapsible=1;marginBottom=0;whiteSpace=wrap;html=1;fontFamily=sans-serif;strokeColor=#FF0000;" vertex="1" parent="1">
          <mxGeometry x="290" y="300" width="160" height="150" as="geometry" />
        </mxCell>
        <mxCell id="yb0SHUQ2o_HHCoy64Sg8-34" value="&lt;div&gt;&lt;font style=&quot;font-size: 10px;&quot;&gt;Drzewo:&amp;nbsp;&lt;/font&gt;&lt;/div&gt;&lt;div&gt;&lt;font style=&quot;font-size: 10px;&quot;&gt;&amp;nbsp;&amp;nbsp;&amp;nbsp; 961b3218...&lt;/font&gt;&lt;/div&gt;" style="text;strokeColor=none;fillColor=none;align=left;verticalAlign=middle;spacingLeft=4;spacingRight=4;overflow=hidden;points=[[0,0.5],[1,0.5]];portConstraint=eastwest;rotatable=0;whiteSpace=wrap;html=1;fontFamily=sans-serif;" vertex="1" parent="yb0SHUQ2o_HHCoy64Sg8-33">
          <mxGeometry y="30" width="160" height="30" as="geometry" />
        </mxCell>
        <mxCell id="yb0SHUQ2o_HHCoy64Sg8-35" value="&lt;div&gt;Wiadomość:&lt;/div&gt;&lt;div&gt;&amp;nbsp;&amp;nbsp;&amp;nbsp; nowy &lt;span style=&quot;color: rgb(204, 0, 102);&quot;&gt;feature&lt;/span&gt;&lt;/div&gt;" style="text;strokeColor=none;fillColor=none;align=left;verticalAlign=middle;spacingLeft=4;spacingRight=4;overflow=hidden;points=[[0,0.5],[1,0.5]];portConstraint=eastwest;rotatable=0;whiteSpace=wrap;html=1;fontSize=10;fontFamily=sans-serif;" vertex="1" parent="yb0SHUQ2o_HHCoy64Sg8-33">
          <mxGeometry y="60" width="160" height="30" as="geometry" />
        </mxCell>
        <mxCell id="yb0SHUQ2o_HHCoy64Sg8-36" value="&lt;div&gt;Data:&lt;/div&gt;&lt;div&gt;&amp;nbsp;&amp;nbsp;&amp;nbsp; 2025-02-16 21:06:53 UTC+1&lt;/div&gt;" style="text;strokeColor=none;fillColor=none;align=left;verticalAlign=middle;spacingLeft=4;spacingRight=4;overflow=hidden;points=[[0,0.5],[1,0.5]];portConstraint=eastwest;rotatable=0;whiteSpace=wrap;html=1;fontSize=10;fontFamily=sans-serif;" vertex="1" parent="yb0SHUQ2o_HHCoy64Sg8-33">
          <mxGeometry y="90" width="160" height="30" as="geometry" />
        </mxCell>
        <mxCell id="yb0SHUQ2o_HHCoy64Sg8-37" value="&lt;div&gt;&lt;font size=&quot;1&quot;&gt;Poprzedni:&lt;/font&gt;&lt;/div&gt;&lt;div&gt;&lt;font size=&quot;1&quot;&gt;&amp;nbsp;&amp;nbsp;&amp;nbsp;&amp;nbsp;&amp;nbsp;86a1287c&lt;/font&gt;&lt;/div&gt;" style="text;html=1;align=left;verticalAlign=middle;whiteSpace=wrap;rounded=0;fontFamily=sans-serif;" vertex="1" parent="yb0SHUQ2o_HHCoy64Sg8-33">
          <mxGeometry y="120" width="160" height="30" as="geometry" />
        </mxCell>
        <mxCell id="yb0SHUQ2o_HHCoy64Sg8-38" value="Hash: c9d2643d..." style="text;html=1;align=center;verticalAlign=middle;resizable=0;points=[];autosize=1;strokeColor=none;fillColor=none;fontColor=#FF0000;fontFamily=sans-serif;" vertex="1" parent="1">
          <mxGeometry x="310" y="460" width="120" height="30" as="geometry" />
        </mxCell>
        <mxCell id="yb0SHUQ2o_HHCoy64Sg8-39" value="&lt;div&gt;Commit 3&lt;/div&gt;" style="swimlane;fontStyle=0;childLayout=stackLayout;horizontal=1;startSize=30;horizontalStack=0;resizeParent=1;resizeParentMax=0;resizeLast=0;collapsible=1;marginBottom=0;whiteSpace=wrap;html=1;fontFamily=sans-serif;strokeColor=#FF8000;" vertex="1" parent="1">
          <mxGeometry x="510" y="300" width="160" height="150" as="geometry" />
        </mxCell>
        <mxCell id="yb0SHUQ2o_HHCoy64Sg8-40" value="&lt;div&gt;&lt;font style=&quot;font-size: 10px;&quot;&gt;Drzewo:&amp;nbsp;&lt;/font&gt;&lt;/div&gt;&lt;div&gt;&lt;font style=&quot;font-size: 10px;&quot;&gt;&amp;nbsp;&amp;nbsp;&amp;nbsp; aaa3ce3f...&lt;/font&gt;&lt;/div&gt;" style="text;strokeColor=none;fillColor=none;align=left;verticalAlign=middle;spacingLeft=4;spacingRight=4;overflow=hidden;points=[[0,0.5],[1,0.5]];portConstraint=eastwest;rotatable=0;whiteSpace=wrap;html=1;fontFamily=sans-serif;" vertex="1" parent="yb0SHUQ2o_HHCoy64Sg8-39">
          <mxGeometry y="30" width="160" height="30" as="geometry" />
        </mxCell>
        <mxCell id="yb0SHUQ2o_HHCoy64Sg8-41" value="&lt;div&gt;Wiadomość:&lt;/div&gt;&lt;div&gt;&amp;nbsp;&amp;nbsp;&amp;nbsp; naprawa crasha (ups)&lt;/div&gt;" style="text;strokeColor=none;fillColor=none;align=left;verticalAlign=middle;spacingLeft=4;spacingRight=4;overflow=hidden;points=[[0,0.5],[1,0.5]];portConstraint=eastwest;rotatable=0;whiteSpace=wrap;html=1;fontSize=10;fontFamily=sans-serif;" vertex="1" parent="yb0SHUQ2o_HHCoy64Sg8-39">
          <mxGeometry y="60" width="160" height="30" as="geometry" />
        </mxCell>
        <mxCell id="yb0SHUQ2o_HHCoy64Sg8-42" value="&lt;div&gt;Data:&lt;/div&gt;&lt;div&gt;&amp;nbsp;&amp;nbsp;&amp;nbsp; 2025-02-16 21:16:08 UTC+1&lt;/div&gt;" style="text;strokeColor=none;fillColor=none;align=left;verticalAlign=middle;spacingLeft=4;spacingRight=4;overflow=hidden;points=[[0,0.5],[1,0.5]];portConstraint=eastwest;rotatable=0;whiteSpace=wrap;html=1;fontSize=10;fontFamily=sans-serif;" vertex="1" parent="yb0SHUQ2o_HHCoy64Sg8-39">
          <mxGeometry y="90" width="160" height="30" as="geometry" />
        </mxCell>
        <mxCell id="yb0SHUQ2o_HHCoy64Sg8-43" value="&lt;div&gt;&lt;font size=&quot;1&quot;&gt;Poprzedni:&lt;/font&gt;&lt;/div&gt;&lt;div&gt;&lt;font size=&quot;1&quot;&gt;&amp;nbsp;&amp;nbsp;&amp;nbsp;&amp;nbsp;&amp;nbsp;&lt;span style=&quot;color: rgb(255, 0, 0);&quot;&gt;461c2485&lt;/span&gt;&lt;/font&gt;&lt;/div&gt;" style="text;html=1;align=left;verticalAlign=middle;whiteSpace=wrap;rounded=0;fontFamily=sans-serif;" vertex="1" parent="yb0SHUQ2o_HHCoy64Sg8-39">
          <mxGeometry y="120" width="160" height="30" as="geometry" />
        </mxCell>
        <mxCell id="yb0SHUQ2o_HHCoy64Sg8-44" value="Hash: 1c9f3f2e..." style="text;html=1;align=center;verticalAlign=middle;resizable=0;points=[];autosize=1;strokeColor=none;fillColor=none;fontColor=#FF8000;fontFamily=sans-serif;" vertex="1" parent="1">
          <mxGeometry x="530" y="460" width="120" height="30" as="geometry" />
        </mxCell>
        <mxCell id="yb0SHUQ2o_HHCoy64Sg8-45" value="" style="curved=1;endArrow=classic;html=1;rounded=0;exitX=0.063;exitY=0.667;exitDx=0;exitDy=0;exitPerimeter=0;fontFamily=sans-serif;" edge="1" source="yb0SHUQ2o_HHCoy64Sg8-37" target="yb0SHUQ2o_HHCoy64Sg8-32" parent="1">
          <mxGeometry width="50" height="50" relative="1" as="geometry">
            <mxPoint x="390" y="430" as="sourcePoint" />
            <mxPoint x="440" y="380" as="targetPoint" />
            <Array as="points">
              <mxPoint x="250" y="435" />
              <mxPoint x="250" y="470" />
            </Array>
          </mxGeometry>
        </mxCell>
        <mxCell id="yb0SHUQ2o_HHCoy64Sg8-46" value="" style="curved=1;endArrow=classic;html=1;rounded=0;strokeColor=#FF0000;fontFamily=sans-serif;" edge="1" parent="1">
          <mxGeometry width="50" height="50" relative="1" as="geometry">
            <mxPoint x="520" y="440" as="sourcePoint" />
            <mxPoint x="440" y="270" as="targetPoint" />
            <Array as="points">
              <mxPoint x="470" y="440" />
              <mxPoint x="480" y="300" />
            </Array>
          </mxGeometry>
        </mxCell>
        <mxCell id="yb0SHUQ2o_HHCoy64Sg8-47" value="" style="verticalLabelPosition=bottom;verticalAlign=top;html=1;shape=mxgraph.basic.x;fillColor=#f8cecc;strokeColor=#b85450;fontFamily=sans-serif;" vertex="1" parent="1">
          <mxGeometry x="455" y="360" width="40" height="40" as="geometry" />
        </mxCell>
      </root>
    </mxGraphModel>
  </diagram>
</mxfile>
